<svg width="32" height="32" viewBox="0 0 32 32" fill="none" xmlns="http://www.w3.org/2000/svg">
  <!-- Castle base -->
  <rect x="4" y="16" width="24" height="12" fill="#4A5568" stroke="#2D3748" stroke-width="1"/>
  
  <!-- Castle towers -->
  <rect x="2" y="8" width="6" height="20" fill="#4A5568" stroke="#2D3748" stroke-width="1"/>
  <rect x="24" y="8" width="6" height="20" fill="#4A5568" stroke="#2D3748" stroke-width="1"/>
  <rect x="13" y="6" width="6" height="22" fill="#4A5568" stroke="#2D3748" stroke-width="1"/>
  
  <!-- Tower tops -->
  <rect x="1" y="6" width="8" height="3" fill="#718096"/>
  <rect x="23" y="6" width="8" height="3" fill="#718096"/>
  <rect x="12" y="4" width="8" height="3" fill="#718096"/>
  
  <!-- Crenellations -->
  <rect x="1" y="6" width="1" height="2" fill="#2D3748"/>
  <rect x="3" y="6" width="1" height="2" fill="#2D3748"/>
  <rect x="5" y="6" width="1" height="2" fill="#2D3748"/>
  <rect x="7" y="6" width="1" height="2" fill="#2D3748"/>
  
  <rect x="23" y="6" width="1" height="2" fill="#2D3748"/>
  <rect x="25" y="6" width="1" height="2" fill="#2D3748"/>
  <rect x="27" y="6" width="1" height="2" fill="#2D3748"/>
  <rect x="29" y="6" width="1" height="2" fill="#2D3748"/>
  
  <rect x="12" y="4" width="1" height="2" fill="#2D3748"/>
  <rect x="14" y="4" width="1" height="2" fill="#2D3748"/>
  <rect x="16" y="4" width="1" height="2" fill="#2D3748"/>
  <rect x="18" y="4" width="1" height="2" fill="#2D3748"/>
  
  <!-- Gate -->
  <path d="M14 20 Q16 18 18 20 L18 28 L14 28 Z" fill="#2D3748"/>
  
  <!-- Windows -->
  <rect x="5" y="12" width="2" height="2" fill="#2D3748"/>
  <rect x="25" y="12" width="2" height="2" fill="#2D3748"/>
  <rect x="15" y="10" width="2" height="2" fill="#2D3748"/>
  
  <!-- Flag -->
  <line x1="16" y1="4" x2="16" y2="1" stroke="#E53E3E" stroke-width="1"/>
  <polygon points="16,1 20,2 16,3" fill="#E53E3E"/>
</svg>
